# xmcd
#
# Track frame offsets:
#	150
#	17026
#	29260
#	45835
#	58756
#	76202
#	103148
#	129265
#	160973
#	186428
#	204772
#
# Disc length: 3019 seconds
#
# Revision: 1
# Processed by: cddbd v1.5.1PL0 Copyright (c) Steve Scherf et al.
# Submitted via: CDex 1.50Beta5
#
DISCID=840bc90b
DTITLE=Acoustic Cafe’ - For Your Loneliness
DYEAR=2000
DGENRE=New Age
TTITLE0=・シネマ・パラダイス メドレー
TTITLE1=ノルウェーの森
TTITLE2=愛の悲しみ
TTITLE3=愛のあいさつ
TTITLE4=シチリアーノ
TTITLE5=エタニティ
TTITLE6=ブエノスアイレスの冬〜リベルタンゴ
TTITLE7=サウンド・オブ・ミュージック メドレー
TTITLE8=太古の太陽
TTITLE9=ジュ・トゥ・ヴ
TTITLE10=星に願いを
EXTD=
EXTT0=
EXTT1=
EXTT2=
EXTT3=
EXTT4=
EXTT5=
EXTT6=
EXTT7=
EXTT8=
EXTT9=
EXTT10=
PLAYORDER=
